# xmcd CD database file
#
# Track frame offsets:
#	150
#	56637
#	99882
#	162960
#	213272
#	260975
#
# Disc length: 4105 seconds
#
# Revision: 3
# Processed by: cddbd v1.5.2PL0 Copyright (c) Steve Scherf et al.
# Submitted via: CDex 1.70beta2
#
DISCID=4f100706
DTITLE=George Benson - Witchcraft (Remasterizado)
DYEAR=2002
DGENRE=Jazz
TTITLE0=All Blues
TTITLE1=Witchcraft
TTITLE2=Love For Sale
TTITLE3=Lil' Darlin'
TTITLE4=There Will Never Be Another You
TTITLE5=Oleo
EXTD=YEAR: 2002
EXTT0=
EXTT1=
EXTT2=
EXTT3=
EXTT4=
EXTT5=
PLAYORDER=
